<svg width="478" height="410" viewBox="0 0 478 410" fill="none" xmlns="http://www.w3.org/2000/svg">
<path d="M145.717 398C55.6539 357.873 25.2783 231.721 61.5978 140.278C101.879 38.8633 211.701 11.6044 230.574 7.31381C296.234 -7.58978 410.896 -5.29385 456.31 70.4455C506.788 154.624 434.493 267.425 384.639 318.295C371.575 331.616 255.394 446.857 145.717 398Z" fill="#F8F8F8"/>
<path d="M382.732 284.832L183.562 223.739L233.758 41.8702L440.105 76.9727L382.732 284.832ZM185.631 222.609L381.57 282.716L437.984 78.3188L234.978 43.7862L185.631 222.609Z" fill="#444444"/>
<path d="M87.0164 405.765L86.6186 405.022L17.9749 276.982L98.1696 233.989L111.565 258.967L167.213 362.769L166.471 363.167L87.0164 405.765ZM20.256 277.673L87.7065 403.482L164.931 362.075L110.08 259.758L97.4824 236.27L87.4705 241.638L20.256 277.673Z" fill="#444444"/>
<g style="mix-blend-mode:multiply" opacity="0.2">
<path d="M421.807 257.157C452.597 257.157 477.557 232.197 477.557 201.408C477.557 170.618 452.597 145.658 421.807 145.658C391.018 145.658 366.058 170.618 366.058 201.408C366.058 232.197 391.018 257.157 421.807 257.157Z" fill="#B6B6B6"/>
</g>
<path d="M416.288 257.157C447.077 257.157 472.037 232.197 472.037 201.408C472.037 170.618 447.077 145.658 416.288 145.658C385.498 145.658 360.538 170.618 360.538 201.408C360.538 232.197 385.498 257.157 416.288 257.157Z" fill="#F9C067"/>
<g style="mix-blend-mode:multiply" opacity="0.2">
<path d="M369.311 273.185C369.311 273.185 428.548 91.7205 426.864 91.7205C425.179 91.7205 407.071 88.3516 407.071 88.3516L369.311 273.185Z" fill="#B6B6B6"/>
</g>
<g style="mix-blend-mode:multiply" opacity="0.2">
<path d="M260.039 373.29L330.391 261.392L260.039 241.693V373.29Z" fill="#B6B6B6"/>
</g>
<g style="mix-blend-mode:multiply" opacity="0.2">
<path d="M311.663 314.479C306.914 314.479 302.494 315.645 298.794 317.645L287.081 308.277C289.079 305.418 290.228 302.104 290.228 298.566C290.228 287.82 279.69 279.109 266.683 279.109C253.676 279.109 243.138 287.82 243.138 298.566C243.138 309.313 253.675 318.022 266.683 318.022C273.083 318.022 278.883 315.91 283.126 312.486L293.939 321.134C290.318 324.556 288.119 329.032 288.119 333.934C288.119 344.681 298.656 353.391 311.663 353.391C324.67 353.391 335.207 344.681 335.207 333.934C335.207 323.188 324.665 314.479 311.663 314.479Z" fill="#B6B6B6"/>
</g>
<path d="M147.4 358.963L68.6891 401.161L0.443115 273.866L68.3983 237.433L79.1537 231.668L92.1502 255.903L147.4 358.963Z" fill="#3D3D3D"/>
<path d="M27.9185 275.809L31.053 274.131L29.7083 271.625L20.4192 276.609L21.7549 279.111L24.9102 277.422L30.3524 287.575L33.3563 285.966L27.9185 275.809Z" fill="#D5D5D5"/>
<path d="M44.5676 271.79C43.6534 270.092 42.3939 268.824 40.789 267.986C39.1842 267.148 37.4977 267.202 35.7296 268.149C33.9813 269.085 32.9657 270.425 32.6827 272.168C32.3998 273.911 32.755 275.708 33.7483 277.557C34.7219 279.372 36.0181 280.67 37.6367 281.45C39.2554 282.229 40.9167 282.163 42.6204 281.251C44.4014 280.295 45.417 278.939 45.6673 277.181C45.9196 275.426 45.5486 273.63 44.5676 271.79ZM41.4079 278.783C39.8525 279.617 38.3417 278.664 36.8754 275.926C35.4091 273.187 35.4536 271.406 37.009 270.583C38.5139 269.778 40.0009 270.743 41.4702 273.48C42.9395 276.217 42.9187 277.984 41.4079 278.783Z" fill="#D5D5D5"/>
<path d="M61.6203 262.626C60.8456 261.185 59.9007 260.157 58.7856 259.542C57.6705 258.928 56.6089 258.609 55.6007 258.587C54.593 258.566 53.3047 258.974 51.7286 259.821L47.8699 261.899L54.6568 274.554L59.0127 272.221C60.8876 271.214 62.0349 269.817 62.4544 268.029C62.8739 266.241 62.5959 264.44 61.6203 262.626ZM59.265 267.45C59.173 268.538 58.5877 269.371 57.5093 269.949L56.2878 270.605L52.0284 262.661L53.2751 261.991C53.8257 261.674 54.4519 261.512 55.0872 261.522C55.6719 261.549 56.2908 261.81 56.9408 262.298C57.6003 262.806 58.1421 263.45 58.5289 264.186C59.1092 265.277 59.3585 266.358 59.265 267.45Z" fill="#D5D5D5"/>
<path d="M73.7665 256.135C72.9275 254.51 71.6095 253.182 69.9909 252.331C69.0991 251.847 68.0784 251.654 67.0716 251.779C66.3202 251.882 65.5945 252.123 64.9315 252.491C63.1832 253.43 62.168 254.771 61.886 256.515C61.6041 258.258 61.9578 260.054 62.9472 261.902C63.715 263.326 64.6772 264.43 65.8338 265.213C66.1535 265.433 66.49 265.628 66.8401 265.795C68.4578 266.575 70.119 266.507 71.8237 265.593C73.6047 264.64 74.6198 263.285 74.8692 261.527C75.1185 259.768 74.7509 257.971 73.7665 256.135ZM70.6097 263.128C69.1197 263.929 67.6692 263.085 66.2583 260.596C66.1959 260.491 66.1366 260.381 66.0772 260.273C64.6109 257.538 64.6559 255.754 66.2123 254.922C66.3984 254.82 66.5984 254.744 66.8059 254.698C68.109 254.401 69.3982 255.44 70.6736 257.815C72.1369 260.554 72.1156 262.325 70.6097 263.128Z" fill="#D5D5D5"/>
<path d="M38.0166 312.762C42.3563 311.921 45.1923 307.721 44.3512 303.381C43.51 299.042 39.3101 296.206 34.9704 297.047C30.6308 297.888 27.7947 302.088 28.6359 306.428C29.4771 310.767 33.677 313.603 38.0166 312.762Z" fill="#D5D5D5"/>
<path d="M90.7567 279.594L51.4748 300.654C51.0893 300.861 50.6669 300.989 50.2317 301.033C49.7965 301.076 49.3569 301.033 48.9383 300.907C48.5196 300.78 48.1299 300.573 47.7915 300.295C47.4531 300.018 47.1726 299.677 46.9661 299.292C46.7595 298.906 46.6308 298.484 46.5874 298.049C46.5441 297.613 46.5869 297.174 46.7134 296.755C46.8399 296.336 47.0477 295.947 47.3248 295.608C47.6019 295.27 47.943 294.99 48.3285 294.783L87.6103 273.723C87.9957 273.516 88.4181 273.387 88.8533 273.344C89.2885 273.3 89.728 273.343 90.1467 273.469C90.5655 273.596 90.9552 273.803 91.2936 274.081C91.632 274.358 91.9125 274.699 92.1191 275.084C92.5364 275.863 92.6274 276.776 92.3719 277.621C92.1164 278.467 91.5354 279.177 90.7567 279.594Z" fill="#D5D5D5"/>
<path d="M48.1017 334.42C52.5217 334.362 56.058 330.732 56.0001 326.312C55.9422 321.892 52.3122 318.356 47.8921 318.413C43.4721 318.471 39.9358 322.101 39.9937 326.521C40.0515 330.941 43.6816 334.478 48.1017 334.42Z" fill="#D5D5D5"/>
<path d="M102.283 301.094L63.0011 322.161C62.6156 322.368 62.1932 322.496 61.7579 322.54C61.3226 322.583 60.883 322.54 60.4643 322.414C60.0456 322.287 59.6559 322.08 59.3175 321.802C58.9791 321.525 58.6987 321.184 58.4923 320.798C58.0749 320.02 57.9838 319.108 58.239 318.262C58.4942 317.416 59.0749 316.707 59.8532 316.289L99.1366 295.23C99.5221 295.023 99.9445 294.894 100.38 294.851C100.815 294.808 101.254 294.851 101.673 294.977C102.092 295.104 102.481 295.311 102.82 295.588C103.158 295.866 103.439 296.207 103.645 296.592C104.06 297.37 104.15 298.281 103.894 299.124C103.639 299.968 103.06 300.676 102.283 301.094Z" fill="#D5D5D5"/>
<path d="M113.808 322.593L74.525 343.652C73.7466 344.07 72.8343 344.161 71.9888 343.906C71.1432 343.65 70.4337 343.07 70.0162 342.291C69.8094 341.906 69.6805 341.484 69.6369 341.049C69.5934 340.613 69.636 340.174 69.7624 339.755C69.8888 339.336 70.0964 338.947 70.3735 338.608C70.6506 338.27 70.9916 337.989 71.3772 337.783L110.661 316.721C111.046 316.515 111.468 316.386 111.904 316.343C112.339 316.299 112.778 316.342 113.197 316.469C113.616 316.595 114.005 316.803 114.344 317.08C114.682 317.357 114.963 317.698 115.169 318.084C115.587 318.862 115.678 319.775 115.423 320.62C115.167 321.466 114.587 322.175 113.808 322.593Z" fill="#D5D5D5"/>
<g style="mix-blend-mode:multiply" opacity="0.2">
<path d="M92.1503 255.903L81.6397 276.925L76.475 287.254L62.729 314.742L60.9258 318.344L61.1825 315.571L63.1371 294.403L63.8703 286.45L65.8338 265.213L66.2582 260.596L66.8014 254.698L67.0715 251.779L68.3984 237.433L79.1538 231.668L92.1503 255.903Z" fill="#B6B6B6"/>
</g>
<path d="M401.36 228.216C400.333 228.116 399.334 227.814 398.424 227.328C397.513 226.842 396.706 226.181 396.052 225.382L380.994 207.055C379.735 205.437 379.158 203.392 379.385 201.355C379.612 199.318 380.625 197.449 382.209 196.148C383.793 194.847 385.822 194.215 387.864 194.388C389.906 194.56 391.801 195.523 393.144 197.071L403.211 209.326L434.554 183.573C435.348 182.882 436.271 182.357 437.271 182.029C438.271 181.702 439.326 181.578 440.375 181.665C441.423 181.753 442.443 182.05 443.375 182.538C444.307 183.027 445.131 183.698 445.799 184.511C446.467 185.324 446.965 186.262 447.263 187.271C447.562 188.28 447.655 189.338 447.538 190.384C447.42 191.429 447.094 192.441 446.578 193.358C446.063 194.275 445.368 195.079 444.536 195.724L407.119 226.466C406.321 227.122 405.402 227.614 404.414 227.915C403.426 228.215 402.388 228.317 401.36 228.216Z" fill="white"/>
<path d="M318.052 343.575C317.775 343.324 317.549 343.021 317.389 342.682C317.229 342.344 317.137 341.978 317.119 341.604C317.1 341.23 317.156 340.856 317.282 340.504C317.408 340.152 317.602 339.828 317.853 339.55C320.59 336.528 315.998 331.776 315.95 331.729L249.016 271.086C248.739 270.835 248.514 270.531 248.354 270.193C248.194 269.855 248.102 269.488 248.084 269.114C248.065 268.74 248.121 268.367 248.247 268.014C248.373 267.662 248.567 267.338 248.818 267.06C249.07 266.783 249.373 266.558 249.711 266.398C250.05 266.238 250.416 266.146 250.79 266.127C251.164 266.109 251.538 266.164 251.89 266.291C252.242 266.417 252.567 266.611 252.844 266.862L319.901 327.621C322.939 330.712 327.123 337.811 322.078 343.378C321.571 343.938 320.861 344.273 320.106 344.31C319.351 344.347 318.612 344.083 318.052 343.575Z" fill="#636466"/>
<path d="M251.518 283.291C251.796 283.543 252.12 283.737 252.472 283.863C252.825 283.989 253.198 284.044 253.572 284.026C253.946 284.007 254.312 283.915 254.65 283.755C254.989 283.595 255.292 283.37 255.543 283.093C258.282 280.072 263.463 284.176 263.515 284.218L330.449 344.868C330.725 345.127 331.05 345.328 331.404 345.46C331.759 345.592 332.137 345.652 332.515 345.637C332.893 345.621 333.264 345.53 333.607 345.37C333.95 345.21 334.257 344.982 334.511 344.702C334.766 344.421 334.961 344.093 335.087 343.736C335.213 343.379 335.267 343.001 335.245 342.623C335.223 342.245 335.126 341.875 334.96 341.535C334.793 341.195 334.561 340.892 334.276 340.643L267.219 279.884C263.844 277.163 256.368 273.698 251.325 279.265C250.817 279.825 250.552 280.563 250.588 281.318C250.624 282.073 250.959 282.783 251.518 283.291Z" fill="#636466"/>
<path opacity="0.28" d="M281.716 298.279C290.018 289.977 290.018 276.517 281.716 268.215C273.414 259.913 259.953 259.913 251.651 268.215C243.349 276.517 243.349 289.977 251.651 298.279C259.953 306.581 273.414 306.581 281.716 298.279Z" fill="#F2F2F2"/>
<path opacity="0.28" d="M331.929 343.776C340.231 335.474 340.231 322.014 331.929 313.712C323.627 305.41 310.166 305.41 301.864 313.712C293.562 322.014 293.562 335.474 301.864 343.776C310.166 352.078 323.627 352.078 331.929 343.776Z" fill="#F2F2F2"/>
<path d="M333.484 310.436C325.232 302.959 313.245 302.125 304.177 307.575C303.248 304.06 301.32 300.889 298.626 298.448C295.931 296.007 292.587 294.4 288.997 293.821C293.53 284.262 291.535 272.428 283.269 264.937C273.177 255.789 257.513 256.574 248.377 266.657C239.241 276.741 240 292.401 250.097 301.549C254.145 305.196 259.278 307.415 264.708 307.866C268.476 308.15 272.26 307.574 275.773 306.182C279.286 304.79 282.437 302.618 284.989 299.831C285.167 299.633 285.358 299.422 285.523 299.212C286.102 299.224 286.669 299.25 287.236 299.302C290.171 299.629 292.81 300.764 294.852 302.613C296.894 304.463 298.282 306.978 298.895 309.866C299.011 310.431 299.093 311.003 299.141 311.577C298.948 311.761 298.77 311.957 298.591 312.155C294.297 316.897 292.017 323.125 292.236 329.519C292.299 331.786 292.678 334.034 293.359 336.198C294.669 340.364 297.069 344.105 300.311 347.032C310.403 356.18 326.054 355.408 335.203 345.312C344.351 335.215 343.581 319.589 333.484 310.436ZM265.808 302.216C262.208 302.051 258.73 300.865 255.779 298.798C252.827 296.73 250.525 293.866 249.14 290.539C247.756 287.213 247.345 283.561 247.958 280.01C248.57 276.459 250.18 273.156 252.599 270.485C259.631 262.726 271.667 262.119 279.44 269.163C286.467 275.53 287.616 286.006 282.546 293.695L282.533 293.709C282.006 294.52 281.414 295.287 280.763 296.003C280.388 296.424 279.992 296.825 279.576 297.205C277.044 299.563 273.904 301.166 270.51 301.836C268.962 302.157 267.381 302.286 265.802 302.22L265.808 302.216ZM304.144 342.823C300.867 339.866 298.732 335.854 298.11 331.484C297.887 329.921 297.858 328.336 298.025 326.766C298.357 323.323 299.641 320.04 301.736 317.287C302.073 316.834 302.434 316.399 302.816 315.984C303.464 315.265 304.169 314.6 304.923 313.995L304.937 313.982C312.09 308.182 322.629 308.295 329.656 314.66C333.391 318.044 335.628 322.773 335.876 327.806C336.124 332.84 334.363 337.766 330.979 341.5C327.595 345.235 322.866 347.472 317.832 347.72C312.799 347.968 307.873 346.207 304.138 342.823H304.144Z" fill="#636466"/>
<path d="M421.807 83.2951L369.833 271.596C369.259 273.72 368.271 275.709 366.926 277.45C365.58 279.19 363.904 280.647 361.994 281.738C360.083 282.829 357.976 283.531 355.794 283.805C353.611 284.078 351.396 283.918 349.275 283.333C347.155 282.747 345.171 281.749 343.438 280.395C341.704 279.04 340.256 277.357 339.175 275.441C338.094 273.525 337.403 271.414 337.141 269.23C336.879 267.046 337.051 264.831 337.647 262.714L347.058 228.61L180.134 182.547L217.131 48.476L421.807 83.2951Z" fill="white"/>
<g style="mix-blend-mode:multiply" opacity="0.2">
<path d="M355.191 120.652L354.029 124.864L207.231 84.3473L211.425 69.1484C236.477 78.0294 355.191 120.652 355.191 120.652Z" fill="#B6B6B6"/>
</g>
<g style="mix-blend-mode:multiply" opacity="0.2">
<path d="M364.877 125.161C359.979 123.803 354.766 124.137 350.081 126.108L328.288 205.079L351.761 211.558L337.642 262.718C335.961 268.811 336.893 274.773 339.672 278.48C344.003 276.686 347.926 271.908 349.653 265.65L363.674 214.845L380.444 154.07L380.717 153.082C381.511 150.208 381.73 147.207 381.364 144.249C380.997 141.29 380.051 138.433 378.58 135.84C377.109 133.248 375.142 130.97 372.791 129.138C370.44 127.305 367.751 125.954 364.877 125.161Z" fill="#B6B6B6"/>
</g>
<path d="M349.298 283.253L172.631 234.501C166.678 232.857 161.621 228.916 158.573 223.545C155.525 218.173 154.736 211.811 156.378 205.857L192.294 75.7097L331.556 114.138L325.518 136.019C326.935 130.85 330.144 126.353 334.571 123.332C335.095 122.969 335.638 122.63 336.193 122.316C340.098 120.1 344.572 119.092 349.049 119.419C353.526 119.746 357.806 121.393 361.347 124.153C364.888 126.912 367.532 130.66 368.943 134.921C370.354 139.183 370.47 143.767 369.276 148.095L337.645 262.718C336.468 266.987 337.034 271.548 339.219 275.399C341.405 279.25 345.03 282.075 349.298 283.253Z" fill="#787878"/>
<path d="M322.02 275.725L289.444 266.736L325.657 135.511C327.14 130.547 330.289 126.246 334.572 123.331C345.851 127.141 352.381 139.245 349.175 150.86L318.858 260.718C318.147 263.29 318.063 265.995 318.613 268.606C319.164 271.218 320.332 273.659 322.02 275.725Z" fill="#3D3D3D"/>
<path d="M260.039 373.29L325.516 136.014C327.119 130.212 330.961 125.284 336.196 122.313C341.432 119.342 347.633 118.572 353.436 120.171L154.152 65.1769C148.392 63.5896 142.237 64.3552 137.042 67.3054C131.846 70.2556 128.035 75.1488 126.447 80.9086L60.9241 318.344L260.039 373.29Z" fill="white"/>
<path d="M155.531 121.715C159.72 117.526 159.72 110.735 155.531 106.546C151.342 102.357 144.551 102.357 140.363 106.546C136.174 110.735 136.174 117.526 140.363 121.715C144.551 125.903 151.342 125.903 155.531 121.715Z" fill="#E7E7E7"/>
<path d="M293.475 159.854L170.292 125.86C168.953 125.486 167.816 124.598 167.129 123.388C166.443 122.179 166.263 120.747 166.629 119.405L166.69 119.183C167.064 117.844 167.953 116.707 169.162 116.021C170.372 115.334 171.803 115.154 173.145 115.52L296.327 149.506C297.667 149.88 298.804 150.769 299.49 151.978C300.176 153.188 300.356 154.619 299.99 155.961L299.928 156.184C299.555 157.524 298.667 158.662 297.458 159.35C296.249 160.037 294.817 160.219 293.475 159.854Z" fill="#E7E7E7"/>
<path d="M138.164 160.303C144.088 160.303 148.89 155.501 148.89 149.578C148.89 143.654 144.088 138.852 138.164 138.852C132.241 138.852 127.438 143.654 127.438 149.578C127.438 155.501 132.241 160.303 138.164 160.303Z" fill="#E7E7E7"/>
<path d="M283.693 195.301L160.51 161.314C159.171 160.94 158.034 160.051 157.347 158.842C156.661 157.632 156.481 156.2 156.848 154.858L156.908 154.637C157.282 153.298 158.171 152.161 159.38 151.474C160.589 150.788 162.021 150.608 163.363 150.974L286.545 184.961C287.884 185.335 289.021 186.223 289.708 187.433C290.394 188.642 290.574 190.074 290.208 191.415L290.146 191.636C289.773 192.976 288.885 194.113 287.675 194.8C286.466 195.487 285.034 195.667 283.693 195.301Z" fill="#E7E7E7"/>
<path d="M128.381 195.752C134.304 195.752 139.107 190.95 139.107 185.026C139.107 179.102 134.304 174.3 128.381 174.3C122.457 174.3 117.655 179.102 117.655 185.026C117.655 190.95 122.457 195.752 128.381 195.752Z" fill="#E7E7E7"/>
<path d="M273.97 220.832L151.292 186.329C148.51 185.546 145.62 187.168 144.837 189.95L144.775 190.171C143.993 192.953 145.614 195.843 148.396 196.626L271.074 231.129C273.856 231.911 276.746 230.29 277.529 227.508L277.591 227.287C278.374 224.504 276.752 221.615 273.97 220.832Z" fill="#E7E7E7"/>
<path d="M126.184 228.058C130.373 223.869 130.373 217.078 126.184 212.889C121.996 208.701 115.205 208.701 111.016 212.889C106.827 217.078 106.827 223.869 111.016 228.058C115.205 232.246 121.996 232.246 126.184 228.058Z" fill="#E7E7E7"/>
<path d="M264.129 266.197L140.947 232.203C139.608 231.829 138.471 230.941 137.784 229.731C137.098 228.522 136.918 227.09 137.284 225.749L137.346 225.526C137.72 224.187 138.609 223.05 139.818 222.364C141.028 221.678 142.459 221.498 143.801 221.863L266.983 255.857C268.322 256.231 269.459 257.12 270.145 258.329C270.832 259.539 271.012 260.97 270.646 262.312L270.584 262.534C270.21 263.874 269.321 265.01 268.112 265.697C266.902 266.383 265.471 266.563 264.129 266.197Z" fill="#E7E7E7"/>
<path d="M116.401 263.506C120.59 259.317 120.59 252.526 116.401 248.337C112.213 244.148 105.422 244.149 101.233 248.337C97.0443 252.526 97.0443 259.317 101.233 263.506C105.422 267.694 112.213 267.694 116.401 263.506Z" fill="#E7E7E7"/>
<path d="M254.355 301.644L131.172 267.658C129.834 267.283 128.697 266.394 128.011 265.185C127.325 263.976 127.144 262.545 127.51 261.203L127.572 260.981C127.946 259.641 128.834 258.504 130.044 257.818C131.253 257.131 132.685 256.952 134.026 257.318L257.209 291.304C258.548 291.678 259.686 292.566 260.372 293.776C261.059 294.985 261.238 296.417 260.872 297.759L260.811 297.98C260.438 299.32 259.549 300.458 258.339 301.145C257.129 301.831 255.697 302.011 254.355 301.644Z" fill="#E7E7E7"/>
<path d="M106.619 298.954C110.808 294.765 110.808 287.974 106.619 283.785C102.43 279.597 95.6392 279.597 91.4505 283.785C87.2618 287.974 87.2618 294.765 91.4505 298.954C95.6392 303.143 102.43 303.143 106.619 298.954Z" fill="#E7E7E7"/>
<path d="M244.56 337.093L121.377 303.099C120.038 302.725 118.901 301.836 118.215 300.627C117.529 299.417 117.349 297.986 117.715 296.644L117.777 296.423C118.15 295.083 119.039 293.946 120.248 293.26C121.458 292.573 122.89 292.394 124.231 292.76L247.414 326.747C248.753 327.121 249.89 328.01 250.577 329.219C251.263 330.429 251.443 331.861 251.077 333.203L251.016 333.424C250.643 334.765 249.755 335.903 248.545 336.591C247.335 337.278 245.902 337.459 244.56 337.093Z" fill="#E7E7E7"/>
<path d="M133.082 155.991C132.718 155.891 132.378 155.721 132.08 155.489C131.782 155.257 131.533 154.969 131.348 154.64L127.07 147.101C126.708 146.439 126.621 145.662 126.828 144.936C127.034 144.211 127.517 143.596 128.173 143.223C128.829 142.851 129.605 142.752 130.333 142.946C131.062 143.141 131.685 143.615 132.067 144.264L134.927 149.311L147.82 141.995C148.148 141.802 148.512 141.676 148.89 141.624C149.267 141.573 149.651 141.597 150.02 141.696C150.388 141.794 150.733 141.965 151.034 142.198C151.336 142.431 151.588 142.722 151.776 143.053C151.965 143.385 152.085 143.75 152.13 144.129C152.176 144.507 152.145 144.891 152.041 145.257C151.937 145.624 151.761 145.966 151.523 146.264C151.285 146.562 150.99 146.809 150.656 146.992L135.264 155.726C134.936 155.912 134.574 156.031 134.2 156.076C133.825 156.122 133.446 156.093 133.082 155.991Z" fill="#F9C067"/>
<path d="M114.096 224.802C113.732 224.702 113.392 224.531 113.094 224.299C112.796 224.067 112.547 223.778 112.361 223.45L108.084 215.912C107.891 215.584 107.765 215.22 107.713 214.842C107.662 214.465 107.686 214.081 107.784 213.712C107.883 213.344 108.053 212.999 108.286 212.698C108.52 212.396 108.81 212.144 109.142 211.956C109.473 211.767 109.839 211.647 110.217 211.602C110.596 211.556 110.979 211.586 111.346 211.691C111.713 211.795 112.055 211.971 112.353 212.209C112.651 212.447 112.898 212.742 113.081 213.076L115.941 218.122L128.834 210.805C129.162 210.619 129.523 210.499 129.898 210.453C130.272 210.406 130.652 210.434 131.016 210.535C131.38 210.635 131.72 210.806 132.018 211.038C132.316 211.27 132.565 211.558 132.751 211.886C132.937 212.215 133.057 212.576 133.103 212.951C133.15 213.325 133.122 213.705 133.022 214.069C132.921 214.433 132.75 214.773 132.518 215.071C132.286 215.369 131.998 215.618 131.67 215.804L116.278 224.538C115.949 224.723 115.588 224.842 115.213 224.887C114.839 224.933 114.459 224.904 114.096 224.802Z" fill="#F9C067"/>
<path d="M104.025 261.289C103.661 261.189 103.32 261.018 103.022 260.786C102.725 260.554 102.476 260.266 102.29 259.937L98.0125 252.398C97.6364 251.735 97.539 250.95 97.7418 250.215C97.9445 249.481 98.4308 248.857 99.0937 248.481C99.7565 248.104 100.542 248.007 101.276 248.21C102.011 248.413 102.635 248.899 103.011 249.562L105.869 254.608L118.764 247.293C119.092 247.096 119.457 246.968 119.836 246.914C120.215 246.861 120.601 246.883 120.971 246.981C121.341 247.079 121.688 247.249 121.991 247.483C122.294 247.717 122.547 248.009 122.736 248.341C122.925 248.674 123.046 249.042 123.091 249.422C123.135 249.802 123.104 250.187 122.998 250.555C122.892 250.923 122.713 251.266 122.473 251.564C122.233 251.861 121.935 252.108 121.598 252.29L106.208 261.015C105.88 261.202 105.518 261.322 105.144 261.37C104.769 261.417 104.389 261.389 104.025 261.289Z" fill="#F9C067"/>
<path d="M94.5323 295.69C94.1683 295.59 93.8277 295.42 93.53 295.188C93.2322 294.956 92.9832 294.668 92.7973 294.339L88.5186 286.8C88.1425 286.137 88.0451 285.352 88.2479 284.617C88.4506 283.883 88.9369 283.259 89.5998 282.883C90.2626 282.507 91.0477 282.409 91.7824 282.612C92.517 282.815 93.141 283.301 93.5171 283.964L96.377 289.01L109.27 281.693C109.932 281.317 110.718 281.22 111.452 281.422C112.187 281.625 112.811 282.111 113.187 282.774C113.563 283.437 113.66 284.222 113.458 284.957C113.255 285.692 112.769 286.316 112.106 286.692L96.7139 295.426C96.3857 295.611 96.0239 295.73 95.6495 295.776C95.2751 295.821 94.8954 295.792 94.5323 295.69Z" fill="#F9C067"/>
<path d="M25.9288 176.569C27.1693 170.875 23.5588 165.253 17.8646 164.013C12.1703 162.772 6.54864 166.382 5.30814 172.077C4.06764 177.771 7.67809 183.393 13.3723 184.633C19.0665 185.874 24.6883 182.263 25.9288 176.569Z" fill="#B6B6B6"/>
</svg>
